<svg width="61" height="61" viewBox="0 0 61 61" fill="none" xmlns="http://www.w3.org/2000/svg">
    <path d="M51.1133 0.85498H9.86328C4.68561 0.85498 0.488281 5.05231 0.488281 10.23V51.48C0.488281 56.6576 4.68561 60.855 9.86328 60.855H51.1133C56.291 60.855 60.4883 56.6576 60.4883 51.48V10.23C60.4883 5.05231 56.291 0.85498 51.1133 0.85498Z" fill="#1DA1F2"/>
    <path d="M45.4883 21.48C44.3633 22.0425 43.2383 22.23 41.9258 22.4175C43.2383 21.6675 44.1758 20.5425 44.5508 19.0425C43.4258 19.7925 42.1133 20.1675 40.6133 20.5425C39.4883 19.4175 37.8008 18.6675 36.1133 18.6675C32.1758 18.6675 29.1758 22.4175 30.1133 26.1675C25.0508 25.98 20.5508 23.5425 17.3633 19.7925C15.6758 22.605 16.6133 26.1675 19.2383 28.0425C18.3008 28.0425 17.3633 27.6675 16.4258 27.2925C16.4258 30.105 18.4883 32.73 21.3008 33.48C20.3633 33.6675 19.4258 33.855 18.4883 33.6675C19.2383 36.105 21.4883 37.98 24.3008 37.98C22.0508 39.6675 18.6758 40.605 15.4883 40.23C18.3008 41.9175 21.4883 43.0425 24.8633 43.0425C36.3008 43.0425 42.6758 33.48 42.3008 24.6675C43.6133 23.9175 44.7383 22.7925 45.4883 21.48Z" fill="white"/>
</svg>
