<svg width="25" height="24" viewBox="0 0 25 24" fill="none" xmlns="http://www.w3.org/2000/svg">
    <path d="M20.3341 3.73223L21.0412 3.02513V3.02513L20.3341 3.73223ZM6.56641 21.0355V22.0355C6.83162 22.0355 7.08598 21.9301 7.27351 21.7426L6.56641 21.0355ZM3.06641 21.0355H2.06641C2.06641 21.5878 2.51412 22.0355 3.06641 22.0355V21.0355ZM3.06641 17.4644L2.3593 16.7573C2.17176 16.9448 2.06641 17.1992 2.06641 17.4644H3.06641ZM17.5057 4.43934C18.0915 3.85355 19.0412 3.85355 19.627 4.43934L21.0412 3.02513C19.6744 1.65829 17.4583 1.65829 16.0915 3.02513L17.5057 4.43934ZM19.627 4.43934C20.2128 5.02513 20.2128 5.97487 19.627 6.56066L21.0412 7.97487C22.4081 6.60804 22.4081 4.39196 21.0412 3.02513L19.627 4.43934ZM19.627 6.56066L5.8593 20.3284L7.27351 21.7426L21.0412 7.97487L19.627 6.56066ZM6.56641 20.0355H3.06641V22.0355H6.56641V20.0355ZM16.0915 3.02513L2.3593 16.7573L3.77351 18.1715L17.5057 4.43934L16.0915 3.02513ZM2.06641 17.4644V21.0355H4.06641V17.4644H2.06641ZM14.5915 5.93934L18.127 9.47487L19.5412 8.06066L16.0057 4.52513L14.5915 5.93934Z" fill="#6D84FF"/>
</svg>
