<svg width="61" height="61" viewBox="0 0 61 61" fill="none" xmlns="http://www.w3.org/2000/svg">
    <path d="M51.1133 0.85498H9.86328C4.68561 0.85498 0.488281 5.05231 0.488281 10.23V51.48C0.488281 56.6576 4.68561 60.855 9.86328 60.855H51.1133C56.291 60.855 60.4883 56.6576 60.4883 51.48V10.23C60.4883 5.05231 56.291 0.85498 51.1133 0.85498Z" fill="#231E1B"/>
    <path fill-rule="evenodd" clip-rule="evenodd" d="M30.4424 16.2148C22.1855 16.2148 15.4883 22.9121 15.4883 31.169C15.4883 37.7745 19.8002 43.3708 25.6718 45.3892C26.4057 45.4809 26.6809 45.0222 26.6809 44.6552C26.6809 44.2882 26.6809 43.3708 26.6809 42.0864C22.5525 43.0038 21.6351 40.0681 21.6351 40.0681C20.9929 38.3249 19.9837 37.8662 19.9837 37.8662C18.6075 36.9488 20.0754 36.9488 20.0754 36.9488C21.5433 37.0405 22.369 38.5084 22.369 38.5084C23.7452 40.802 25.8553 40.1598 26.6809 39.7928C26.7727 38.7837 27.2314 38.1415 27.5984 37.7745C24.2956 37.4075 20.8094 36.1231 20.8094 30.3433C20.8094 28.6919 21.3598 27.4075 22.369 26.3066C22.2773 26.0314 21.7268 24.4717 22.5525 22.4534C22.5525 22.4534 23.8369 22.0864 26.6809 24.013C27.8736 23.646 29.158 23.5543 30.4424 23.5543C31.7268 23.5543 33.0112 23.7378 34.2039 24.013C37.0479 22.0864 38.3323 22.4534 38.3323 22.4534C39.158 24.4717 38.6075 26.0314 38.5158 26.3983C39.4332 27.4075 40.0754 28.7837 40.0754 30.435C40.0754 36.2148 36.5892 37.4075 33.2864 37.7745C33.8369 38.2332 34.2956 39.1506 34.2956 40.5268C34.2956 42.5451 34.2956 44.1048 34.2956 44.6552C34.2956 45.0222 34.5709 45.4809 35.3048 45.3892C41.2681 43.3708 45.4883 37.7745 45.4883 31.169C45.3965 22.9121 38.6993 16.2148 30.4424 16.2148Z" fill="white"/>
</svg>
