<svg width="61" height="61" viewBox="0 0 61 61" fill="none" xmlns="http://www.w3.org/2000/svg">
    <path d="M60.4883 10.23C60.4883 5.05231 56.291 0.85498 51.1133 0.85498H9.86328C4.68561 0.85498 0.488281 5.05231 0.488281 10.23V51.48C0.488281 56.6576 4.68561 60.855 9.86328 60.855H51.1133C56.291 60.855 60.4883 56.6576 60.4883 51.48V10.23Z" fill="#7289DA"/>
    <path d="M27.7733 30.315C26.9183 30.315 26.2433 31.065 26.2433 31.98C26.2433 32.895 26.9333 33.645 27.7733 33.645C28.6283 33.645 29.3033 32.895 29.3033 31.98C29.3183 31.065 28.6283 30.315 27.7733 30.315ZM33.2483 30.315C32.3933 30.315 31.7183 31.065 31.7183 31.98C31.7183 32.895 32.4083 33.645 33.2483 33.645C34.1033 33.645 34.7783 32.895 34.7783 31.98C34.7783 31.065 34.1033 30.315 33.2483 30.315Z" fill="white"/>
    <path d="M40.5383 17.73H20.4383C18.7433 17.73 17.3633 19.11 17.3633 20.82V41.1C17.3633 42.81 18.7433 44.19 20.4383 44.19H37.4483L36.6533 41.415L38.5733 43.2L40.3883 44.88L43.6133 47.73V20.82C43.6133 19.11 42.2333 17.73 40.5383 17.73ZM34.7483 37.32C34.7483 37.32 34.2083 36.675 33.7583 36.105C35.7233 35.55 36.4733 34.32 36.4733 34.32C35.8583 34.725 35.2733 35.01 34.7483 35.205C33.9983 35.52 33.2783 35.73 32.5733 35.85C31.1333 36.12 29.8133 36.045 28.6883 35.835C27.8333 35.67 27.0983 35.43 26.4833 35.19C26.1383 35.055 25.7633 34.89 25.3883 34.68C25.3433 34.65 25.2983 34.635 25.2533 34.605C25.2233 34.59 25.2083 34.575 25.1933 34.56C24.9233 34.41 24.7733 34.305 24.7733 34.305C24.7733 34.305 25.4933 35.505 27.3983 36.075C26.9483 36.645 26.3933 37.32 26.3933 37.32C23.0783 37.215 21.8183 35.04 21.8183 35.04C21.8183 30.21 23.9783 26.295 23.9783 26.295C26.1383 24.675 28.1933 24.72 28.1933 24.72L28.3433 24.9C25.6433 25.68 24.3983 26.865 24.3983 26.865C24.3983 26.865 24.7283 26.685 25.2833 26.43C26.8883 25.725 28.1633 25.53 28.6883 25.485C28.7783 25.47 28.8533 25.455 28.9433 25.455C29.8583 25.335 30.8933 25.305 31.9733 25.425C33.3983 25.59 34.9283 26.01 36.4883 26.865C36.4883 26.865 35.3033 25.74 32.7533 24.96L32.9633 24.72C32.9633 24.72 35.0183 24.675 37.1783 26.295C37.1783 26.295 39.3383 30.21 39.3383 35.04C39.3383 35.04 38.0633 37.215 34.7483 37.32Z" fill="white"/>
</svg>
