<svg width="61" height="61" viewBox="0 0 61 61" fill="none" xmlns="http://www.w3.org/2000/svg">
    <path d="M51.1133 0.85498H9.86328C4.68561 0.85498 0.488281 5.05231 0.488281 10.23V51.48C0.488281 56.6576 4.68561 60.855 9.86328 60.855H51.1133C56.291 60.855 60.4883 56.6576 60.4883 51.48V10.23C60.4883 5.05231 56.291 0.85498 51.1133 0.85498Z" fill="#0088CC"/>
    <path d="M15.6756 30.308C23.7287 26.7994 29.0986 24.4864 31.7855 23.3688C39.4571 20.1779 41.0511 19.6237 42.0902 19.6052C42.3187 19.6013 42.8296 19.658 43.1606 19.9265C43.4401 20.1533 43.517 20.4596 43.5538 20.6746C43.5905 20.8896 43.6364 21.3794 43.5999 21.7621C43.1842 26.1302 41.3854 36.7303 40.4702 41.6226C40.083 43.6927 39.3205 44.3868 38.5824 44.4547C36.9782 44.6023 35.76 43.3946 34.2063 42.3761C31.775 40.7823 30.4015 39.7902 28.0415 38.235C25.3141 36.4377 27.0821 35.4499 28.6365 33.8355C29.0432 33.413 36.1113 26.984 36.2482 26.4008C36.2653 26.3278 36.2811 26.0559 36.1196 25.9124C35.9581 25.7688 35.7197 25.8179 35.5477 25.8569C35.3038 25.9123 31.4198 28.4795 23.8956 33.5585C22.7931 34.3156 21.7945 34.6844 20.8998 34.6651C19.9135 34.6438 18.0162 34.1074 16.6057 33.6489C14.8758 33.0866 13.5008 32.7893 13.6205 31.8342C13.6829 31.3368 14.3679 30.8281 15.6756 30.308Z" fill="white"/>
</svg>
