<svg width="61" height="61" viewBox="0 0 61 61" fill="none" xmlns="http://www.w3.org/2000/svg">
    <path d="M51.1133 0.85498H9.86328C4.68561 0.85498 0.488281 5.05231 0.488281 10.23V51.48C0.488281 56.6576 4.68561 60.855 9.86328 60.855H51.1133C56.291 60.855 60.4883 56.6576 60.4883 51.48V10.23C60.4883 5.05231 56.291 0.85498 51.1133 0.85498Z" fill="#2867B2"/>
    <path d="M22.2383 45.855H15.8633V25.7925H22.2383V45.855ZM19.0508 22.98C16.9883 22.98 15.4883 21.48 15.4883 19.4175C15.4883 17.355 17.1758 15.855 19.0508 15.855C21.1133 15.855 22.6133 17.355 22.6133 19.4175C22.6133 21.48 21.1133 22.98 19.0508 22.98ZM45.4883 45.855H39.1133V34.98C39.1133 31.7925 37.8008 30.855 35.9258 30.855C34.0508 30.855 32.1758 32.355 32.1758 35.1675V45.855H25.8008V25.7925H31.8008V28.605C32.3633 27.2925 34.6133 25.23 37.8008 25.23C41.3633 25.23 45.1133 27.2925 45.1133 33.48V45.855H45.4883Z" fill="white"/>
</svg>
