<svg width="61" height="61" viewBox="0 0 61 61" fill="none" xmlns="http://www.w3.org/2000/svg">
    <path d="M51.1133 0.85498H9.86328C4.68561 0.85498 0.488281 5.05231 0.488281 10.23V51.48C0.488281 56.6576 4.68561 60.855 9.86328 60.855H51.1133C56.291 60.855 60.4883 56.6576 60.4883 51.48V10.23C60.4883 5.05231 56.291 0.85498 51.1133 0.85498Z" fill="white"/>
    <path d="M19.0508 23.73C19.0508 23.355 18.8633 22.98 18.6758 22.7925L15.8633 19.4175V18.855H24.4883L31.2383 33.6675L37.2383 18.855H45.4883V19.4175L43.0508 21.6675C42.8633 21.855 42.6758 22.0425 42.8633 22.4175V39.2925C42.8633 39.48 42.8633 39.855 43.0508 40.0425L45.3008 42.2925V42.855H33.4883V42.2925L35.9258 39.855C36.1133 39.6675 36.1133 39.48 36.1133 39.105V25.4175L29.3633 42.48H28.6133L20.7383 25.4175V36.855C20.7383 37.4175 20.9258 37.7925 21.1133 38.1675L24.3008 41.9175V42.48H15.4883V41.9175L18.6758 38.1675C19.0508 37.7925 19.2383 37.4175 19.0508 36.855V23.73Z" fill="black"/>
</svg>
