<svg width="61" height="61" viewBox="0 0 61 61" fill="none" xmlns="http://www.w3.org/2000/svg">
    <path d="M51.1133 0.85498H9.86328C4.68561 0.85498 0.488281 5.05231 0.488281 10.23V51.48C0.488281 56.6576 4.68561 60.855 9.86328 60.855H51.1133C56.2909 60.855 60.4883 56.6576 60.4883 51.48V10.23C60.4883 5.05231 56.2909 0.85498 51.1133 0.85498Z" fill="#1877F2"/>
    <path d="M45.4883 30.855C45.4883 22.605 38.7383 15.855 30.4883 15.855C22.2383 15.855 15.4883 22.605 15.4883 30.855C15.4883 38.355 20.9258 44.5425 28.0508 45.6675V35.1675H24.3008V30.855H28.0508V27.48C28.0508 23.73 30.3008 21.6675 33.6758 21.6675C35.3633 21.6675 37.0508 22.0425 37.0508 22.0425V25.7925H35.1758C33.3008 25.7925 32.7383 26.9175 32.7383 28.0425V30.855H36.8633L36.1133 35.1675H32.5508V45.855C40.0508 44.73 45.4883 38.355 45.4883 30.855Z" fill="white"/>
</svg>
