<svg width="36" height="31" viewBox="0 0 36 31" fill="none" xmlns="http://www.w3.org/2000/svg">
    <path d="M25.8094 26.7778L25.8094 4.22222M25.8094 26.7778C25.8094 28.5574 24.3284 30 22.5015 30L4.30792 30C2.48101 30 0.999999 28.5574 0.999999 26.7778L1 4.22222C1 2.44264 2.48101 0.999999 4.30792 0.999999L22.5015 1C24.3284 1 25.8094 2.44264 25.8094 4.22222M25.8094 26.7778L27.0968 26.7778C28.9237 26.7778 30.4047 25.3351 30.4047 23.5556M25.8094 4.22222L27.0968 4.22222C28.9237 4.22222 30.4047 5.66486 30.4047 7.44444M30.4047 7.44444L31.6921 7.44444C33.519 7.44444 35 8.88708 35 10.6667L35 20.3333C35 22.1129 33.519 23.5556 31.6921 23.5556L30.4047 23.5556M30.4047 7.44444L30.4047 23.5556" stroke="white" stroke-opacity="0.8" stroke-width="2" stroke-linecap="round" stroke-linejoin="round"/>
    <path d="M13.8507 23.0706C16.629 23.0706 19.0654 21.6411 19.849 19.6287C19.963 19.3372 20.02 19.0874 20.02 18.8515C20.02 18.102 19.4643 17.6024 18.7092 17.6024C18.0396 17.6024 17.7119 17.8522 17.2844 18.5739C16.5578 19.8369 15.5462 20.5586 13.8792 20.5586C11.4998 20.5586 9.90405 18.6711 9.90405 15.4928C9.90405 12.384 11.4713 10.4271 13.8792 10.4271C15.4607 10.4271 16.515 11.0933 17.2844 12.4812C17.6549 13.1473 18.0253 13.3972 18.6807 13.3972C19.4358 13.3972 19.9915 12.9253 19.9915 12.162C19.9915 11.9538 19.9345 11.704 19.849 11.468C19.1936 9.42785 16.7145 7.92896 13.8222 7.92896C9.54786 7.92896 6.76953 10.899 6.76953 15.5206C6.76953 20.17 9.5621 23.0706 13.8507 23.0706Z" fill="white" fill-opacity="0.8"/>
</svg>
