<svg width="24" height="23" viewBox="0 0 24 23" fill="none" xmlns="http://www.w3.org/2000/svg">
    <path d="M4.48706 5.92672C4.48706 4.89957 5.32045 4.06689 6.34848 4.06689H17.517C18.5451 4.06689 19.3784 4.89957 19.3784 5.92672V17.0857C19.3784 18.1128 18.5451 18.9455 17.517 18.9455H6.34848C5.32045 18.9455 4.48706 18.1128 4.48706 17.0857V5.92672Z" stroke="#8E8E93" stroke-width="2" stroke-linecap="round" stroke-linejoin="round"/>
    <path d="M10.3371 15.2257V8.31777L15.1236 6.72363V13.6315M10.3371 15.2257C10.3371 15.8126 9.80136 16.2884 9.14048 16.2884C8.4796 16.2884 7.94385 15.8126 7.94385 15.2257C7.94385 14.6387 8.4796 14.1629 9.14048 14.1629C9.80136 14.1629 10.3371 14.6387 10.3371 15.2257ZM15.1236 13.6315C15.1236 14.2185 14.5879 14.6943 13.927 14.6943C13.2661 14.6943 12.7304 14.2185 12.7304 13.6315C12.7304 13.0446 13.2661 12.5688 13.927 12.5688C14.5879 12.5688 15.1236 13.0446 15.1236 13.6315ZM10.3371 10.4433L15.1236 8.84915" stroke="#8E8E93" stroke-width="1.5" stroke-linecap="round" stroke-linejoin="round"/>
</svg>
