<svg width="40" height="41" viewBox="0 0 40 41" fill="none" xmlns="http://www.w3.org/2000/svg">
<path fill-rule="evenodd" clip-rule="evenodd" d="M22.18 24.355C22.48 24.735 22.84 25.165 22.84 25.165C25.05 25.095 25.9 23.645 25.9 23.645C25.9 20.425 24.46 17.815 24.46 17.815C23.02 16.735 21.65 16.765 21.65 16.765L21.51 16.925C23.21 17.445 24 18.195 24 18.195C22.96 17.625 21.94 17.345 20.99 17.235C20.27 17.155 19.58 17.175 18.97 17.255C18.9176 17.255 18.8729 17.2626 18.8224 17.2712L18.8 17.275C18.45 17.305 17.6 17.435 16.53 17.905C16.16 18.075 15.94 18.195 15.94 18.195C15.94 18.195 16.77 17.405 18.57 16.885L18.47 16.765C18.47 16.765 17.1 16.735 15.66 17.815C15.66 17.815 14.22 20.425 14.22 23.645C14.22 23.645 15.06 25.095 17.27 25.165C17.27 25.165 17.64 24.715 17.94 24.335C16.67 23.955 16.19 23.155 16.19 23.155C16.19 23.155 16.29 23.225 16.47 23.325C16.48 23.335 16.49 23.345 16.51 23.355C16.525 23.365 16.54 23.3725 16.555 23.38C16.57 23.3875 16.585 23.395 16.6 23.405C16.85 23.545 17.1 23.655 17.33 23.745C17.74 23.905 18.23 24.065 18.8 24.175C19.55 24.315 20.43 24.365 21.39 24.185C21.86 24.105 22.34 23.965 22.84 23.755C23.19 23.625 23.58 23.435 23.99 23.165C23.99 23.165 23.49 23.985 22.18 24.355ZM17.17 21.605C17.17 20.995 17.62 20.495 18.19 20.495C18.76 20.495 19.22 20.995 19.21 21.605C19.21 22.215 18.76 22.715 18.19 22.715C17.63 22.715 17.17 22.215 17.17 21.605ZM20.82 21.605C20.82 20.995 21.27 20.495 21.84 20.495C22.41 20.495 22.86 20.995 22.86 21.605C22.86 22.215 22.41 22.715 21.84 22.715C21.28 22.715 20.82 22.215 20.82 21.605Z" fill="#8E8E93"/>
<path fill-rule="evenodd" clip-rule="evenodd" d="M20 0.85498C31.0457 0.85498 40 9.80929 40 20.855C40 31.9007 31.0457 40.855 20 40.855C8.95431 40.855 0 31.9007 0 20.855C0 9.80929 8.95431 0.85498 20 0.85498ZM11.25 14.165C11.25 13.025 12.17 12.105 13.3 12.105H26.7C27.83 12.105 28.75 13.025 28.75 14.165V32.105L26.6 30.205L25.39 29.085L24.11 27.895L24.64 29.745H13.3C12.17 29.745 11.25 28.825 11.25 27.685V14.165Z" fill="#8E8E93"/>
</svg>
