<svg width="40" height="41" viewBox="0 0 40 41" fill="none" xmlns="http://www.w3.org/2000/svg">
<path fill-rule="evenodd" clip-rule="evenodd" d="M20 40.855C8.95431 40.855 0 31.9007 0 20.855C0 9.80929 8.95431 0.85498 20 0.85498C31.0457 0.85498 40 9.80929 40 20.855C40 31.9007 31.0457 40.855 20 40.855ZM20.8648 15.8642C19.0736 16.6092 15.4936 18.1513 10.1249 20.4903C9.2531 20.837 8.79642 21.1762 8.75485 21.5078C8.68458 22.0683 9.38643 22.289 10.3422 22.5895C10.4722 22.6304 10.6069 22.6727 10.745 22.7176C11.6853 23.0233 12.9501 23.3809 13.6077 23.3951C14.2042 23.4079 14.8699 23.162 15.6049 22.6574C20.621 19.2713 23.2104 17.5598 23.3729 17.523C23.4876 17.4969 23.6465 17.4642 23.7542 17.5599C23.8619 17.6556 23.8513 17.8369 23.8399 17.8855C23.7704 18.1819 21.0154 20.7432 19.5896 22.0687C19.1452 22.4819 18.8299 22.775 18.7654 22.842C18.6211 22.9919 18.4739 23.1338 18.3325 23.2701C17.459 24.1122 16.8039 24.7437 18.3688 25.775C19.1208 26.2706 19.7226 26.6804 20.323 27.0892C20.9786 27.5357 21.6326 27.9811 22.4787 28.5357C22.6942 28.677 22.9001 28.8238 23.1006 28.9667C23.8637 29.5107 24.5492 29.9994 25.3961 29.9215C25.8882 29.8762 26.3965 29.4135 26.6546 28.0334C27.2647 24.7718 28.464 17.7051 28.7411 14.7931C28.7654 14.5379 28.7348 14.2114 28.7103 14.0681C28.6858 13.9247 28.6345 13.7205 28.4482 13.5693C28.2276 13.3903 27.8869 13.3525 27.7346 13.3551C27.0419 13.3674 25.9792 13.737 20.8648 15.8642Z" fill="#8E8E93"/>
</svg>
