<svg width="24" height="24" viewBox="0 0 24 24" fill="none" xmlns="http://www.w3.org/2000/svg">
    <rect width="24" height="24" fill="#F2F2F7"/>
    <path d="M21.6004 11.9999C21.6004 6.69797 17.3023 2.3999 12.0004 2.3999C6.69845 2.3999 2.40039 6.69797 2.40039 11.9999C2.40039 16.7915 5.91095 20.7631 10.5004 21.4833V14.7749H8.06289V11.9999H10.5004V9.8849C10.5004 7.4789 11.9336 6.1499 14.1265 6.1499C15.1765 6.1499 16.2754 6.3374 16.2754 6.3374V8.6999H15.0649C13.8724 8.6999 13.5004 9.43996 13.5004 10.1999V11.9999H16.1629L15.7373 14.7749H13.5004V21.4833C18.0898 20.7631 21.6004 16.7915 21.6004 11.9999Z" fill="#929292"/>
</svg>
