<svg width="40" height="41" viewBox="0 0 40 41" fill="none" xmlns="http://www.w3.org/2000/svg">
<path fill-rule="evenodd" clip-rule="evenodd" d="M0 20.855C0 9.80929 8.95431 0.85498 20 0.85498C31.0457 0.85498 40 9.80929 40 20.855C40 31.9007 31.0457 40.855 20 40.855C8.95431 40.855 0 31.9007 0 20.855ZM10.25 17.48V30.855H14.5V17.48H10.25ZM10 13.23C10 14.605 11 15.605 12.375 15.605C13.75 15.605 14.75 14.605 14.75 13.23C14.75 11.855 13.75 10.855 12.375 10.855C11.125 10.855 10 11.855 10 13.23ZM25.75 30.855H29.75V22.605C29.75 18.48 27.25 17.105 24.875 17.105C22.75 17.105 21.25 18.48 20.875 19.355V17.48H16.875V30.855H21.125V23.73C21.125 21.855 22.375 20.855 23.625 20.855C24.875 20.855 25.75 21.48 25.75 23.605V30.855Z" fill="#8E8E93"/>
</svg>
