<svg width="39" height="41" viewBox="0 0 39 41" fill="none" xmlns="http://www.w3.org/2000/svg">
<path fill-rule="evenodd" clip-rule="evenodd" d="M19.5 40.855C8.73046 40.855 0 31.9007 0 20.855C0 9.80928 8.73046 0.85498 19.5 0.85498C30.2695 0.85498 39 9.80928 39 20.855C39 31.9007 30.2695 40.855 19.5 40.855ZM11.8219 15.48C11.9437 15.605 12.0656 15.855 12.0656 16.105V24.855C12.1875 25.23 12.0656 25.48 11.8219 25.73L9.75 28.23V28.605H15.4781V28.23L13.4062 25.73C13.2844 25.48 13.1625 25.23 13.1625 24.855V17.23L18.2812 28.605H18.7687L23.1562 17.23V26.355C23.1562 26.605 23.1562 26.73 23.0344 26.855L21.45 28.48V28.855H29.1281V28.48L27.6656 26.98C27.5438 26.855 27.5438 26.605 27.5438 26.48V15.23C27.4219 14.98 27.5438 14.855 27.6656 14.73L29.25 13.23V12.855H23.8875L19.9875 22.73L15.6 12.855H9.99376V13.23L11.8219 15.48Z" fill="#8E8E93"/>
</svg>
