<svg width="14" height="14" viewBox="0 0 14 14" fill="none" xmlns="http://www.w3.org/2000/svg">
<path d="M4.31311 8.97978L3.95956 9.33333L4.66667 10.0404L5.02022 9.68689L4.31311 8.97978ZM9.68689 5.02022L10.0404 4.66667L9.33333 3.95956L8.97978 4.31311L9.68689 5.02022ZM5.02022 4.31311L4.66667 3.95956L3.95956 4.66667L4.31311 5.02022L5.02022 4.31311ZM8.97978 9.68689L9.33333 10.0404L10.0404 9.33333L9.68689 8.97978L8.97978 9.68689ZM12.5 7C12.5 10.0376 10.0376 12.5 7 12.5V13.5C10.5899 13.5 13.5 10.5899 13.5 7H12.5ZM7 12.5C3.96243 12.5 1.5 10.0376 1.5 7H0.5C0.5 10.5899 3.41015 13.5 7 13.5V12.5ZM1.5 7C1.5 3.96243 3.96243 1.5 7 1.5V0.5C3.41015 0.5 0.5 3.41015 0.5 7H1.5ZM7 1.5C10.0376 1.5 12.5 3.96243 12.5 7H13.5C13.5 3.41015 10.5899 0.5 7 0.5V1.5ZM5.02022 9.68689L7.35355 7.35355L6.64645 6.64645L4.31311 8.97978L5.02022 9.68689ZM7.35355 7.35355L9.68689 5.02022L8.97978 4.31311L6.64645 6.64645L7.35355 7.35355ZM4.31311 5.02022L6.64645 7.35355L7.35355 6.64645L5.02022 4.31311L4.31311 5.02022ZM6.64645 7.35355L8.97978 9.68689L9.68689 8.97978L7.35355 6.64645L6.64645 7.35355Z" fill="#C4C4C4"/>
</svg>
