<svg width="40" height="41" viewBox="0 0 40 41" fill="none" xmlns="http://www.w3.org/2000/svg">
<path fill-rule="evenodd" clip-rule="evenodd" d="M0 20.855C0 9.80929 8.95431 0.85498 20 0.85498C31.0457 0.85498 40 9.80929 40 20.855C40 31.9007 31.0457 40.855 20 40.855C8.95431 40.855 0 31.9007 0 20.855ZM27.625 15.23C28.5 15.105 29.25 14.98 30 14.605C29.5 15.48 28.75 16.23 27.875 16.73C28.125 22.605 23.875 28.98 16.25 28.98C14 28.98 11.875 28.23 10 27.105C12.125 27.355 14.375 26.73 15.875 25.605C14 25.605 12.5 24.355 12 22.73C12.625 22.855 13.25 22.73 13.875 22.605C12 22.105 10.625 20.355 10.625 18.48C11.25 18.73 11.875 18.98 12.5 18.98C10.75 17.73 10.125 15.355 11.25 13.48C13.375 15.98 16.375 17.605 19.75 17.73C19.125 15.23 21.125 12.73 23.75 12.73C24.875 12.73 26 13.23 26.75 13.98C27.75 13.73 28.625 13.48 29.375 12.98C29.125 13.98 28.5 14.73 27.625 15.23Z" fill="#8E8E93"/>
</svg>
