<svg width="39" height="41" viewBox="0 0 39 41" fill="none" xmlns="http://www.w3.org/2000/svg">
<path fill-rule="evenodd" clip-rule="evenodd" d="M0 20.855C0 9.80929 8.73045 0.85498 19.5 0.85498C30.2696 0.85498 39 9.80929 39 20.855C39 31.9007 30.2696 40.855 19.5 40.855C8.73045 40.855 0 31.9007 0 20.855ZM19.5 10.855C24.8625 10.855 29.25 15.355 29.25 20.855C29.25 25.855 25.7156 30.105 20.8406 30.855V23.73H23.1562L23.6437 20.855H20.9625V18.98C20.9625 18.23 21.3281 17.48 22.5469 17.48H23.7656V14.98C23.7656 14.98 22.6688 14.73 21.5719 14.73C19.3781 14.73 17.9156 16.105 17.9156 18.605V20.855H15.4781V23.73H17.9156V30.73C13.2844 29.98 9.75 25.855 9.75 20.855C9.75 15.355 14.1375 10.855 19.5 10.855Z" fill="#8E8E93"/>
</svg>
