<svg width="40" height="41" viewBox="0 0 40 41" fill="none" xmlns="http://www.w3.org/2000/svg">
<path fill-rule="evenodd" clip-rule="evenodd" d="M0 20.855C0 9.80929 8.95431 0.85498 20 0.85498C31.0457 0.85498 40 9.80929 40 20.855C40 31.9007 31.0457 40.855 20 40.855C8.95431 40.855 0 31.9007 0 20.855ZM10 21.0644C10 15.5598 14.4648 11.095 19.9694 11.095C25.474 11.095 29.9388 15.5598 30 21.0644C30 25.4681 27.1865 29.199 23.211 30.5445C22.7217 30.6057 22.5382 30.2999 22.5382 30.0552V27.3029C22.5382 26.3855 22.2324 25.7739 21.8655 25.4681C24.0673 25.2234 26.3914 24.4283 26.3914 20.5751C26.3914 19.4742 25.9633 18.5568 25.3517 17.884C25.3565 17.8648 25.3632 17.8406 25.3712 17.8118C25.4649 17.4741 25.7365 16.4939 25.2293 15.254C25.2293 15.254 24.3731 15.0094 22.477 16.2938C21.682 16.1103 20.8257 15.9879 19.9694 15.9879C19.1132 15.9879 18.2569 16.0491 17.4618 16.2938C15.5657 15.0094 14.7095 15.254 14.7095 15.254C14.1689 16.5754 14.5131 17.6018 14.5836 17.8121L14.5872 17.8228C13.9143 18.5568 13.5474 19.413 13.5474 20.5139C13.5474 24.3672 15.8716 25.2234 18.0734 25.4681C17.8288 25.7127 17.523 26.1409 17.4618 26.8136C16.9113 27.0583 15.5046 27.4864 14.5872 25.9574C14.5872 25.9574 14.0367 24.9788 13.0581 24.9176C13.0581 24.9176 12.0795 24.9176 12.997 25.5292C12.997 25.5292 13.6697 25.835 14.0978 26.9971C14.0978 26.9971 14.7095 28.9543 17.4618 28.3427V30.0552C17.4618 30.2999 17.2783 30.6057 16.789 30.5445C12.8746 29.199 10 25.4681 10 21.0644Z" fill="#8E8E93"/>
</svg>
