<svg width="20" height="20" viewBox="0 0 20 20" fill="none" xmlns="http://www.w3.org/2000/svg">
    <rect x="20" y="20" width="6" height="6" rx="1" transform="rotate(180 20 20)" fill="#0C33FF"/>
    <rect x="20" y="13" width="6" height="6" rx="1" transform="rotate(180 20 13)" fill="#0C33FF"/>
    <rect x="20" y="6" width="6" height="6" rx="1" transform="rotate(180 20 6)" fill="#0C33FF"/>
    <rect x="13" y="20" width="6" height="6" rx="1" transform="rotate(180 13 20)" fill="#0C33FF"/>
    <rect x="13" y="13" width="6" height="6" rx="1" transform="rotate(180 13 13)" fill="#0C33FF"/>
    <rect x="13" y="6" width="6" height="6" rx="1" transform="rotate(180 13 6)" fill="#0C33FF"/>
    <rect x="6" y="20" width="6" height="6" rx="1" transform="rotate(180 6 20)" fill="#0C33FF"/>
    <rect x="6" y="13" width="6" height="6" rx="1" transform="rotate(180 6 13)" fill="#0C33FF"/>
    <rect x="6" y="6" width="6" height="6" rx="1" transform="rotate(180 6 6)" fill="#0C33FF"/>
</svg>
