<svg width="24" height="24" viewBox="0 0 24 24" fill="none" xmlns="http://www.w3.org/2000/svg">
    <rect width="24" height="24" fill="#F2F2F7"/>
    <path d="M12.0004 4.12865C14.5654 4.12865 14.8691 4.1399 15.8779 4.1849C16.8154 4.22615 17.3216 4.38365 17.6591 4.5149C18.1054 4.6874 18.4279 4.8974 18.7616 5.23115C19.0991 5.56865 19.3054 5.8874 19.4779 6.33365C19.6091 6.67115 19.7666 7.18115 19.8079 8.1149C19.8529 9.1274 19.8641 9.43115 19.8641 11.9924C19.8641 14.5574 19.8529 14.8612 19.8079 15.8699C19.7666 16.8074 19.6091 17.3137 19.4779 17.6512C19.3054 18.0974 19.0954 18.4199 18.7616 18.7537C18.4241 19.0912 18.1054 19.2974 17.6591 19.4699C17.3216 19.6012 16.8116 19.7587 15.8779 19.7999C14.8654 19.8449 14.5616 19.8562 12.0004 19.8562C9.43539 19.8562 9.13164 19.8449 8.12289 19.7999C7.18539 19.7587 6.67914 19.6012 6.34164 19.4699C5.89539 19.2974 5.57289 19.0874 5.23914 18.7537C4.90164 18.4162 4.69539 18.0974 4.52289 17.6512C4.39164 17.3137 4.23414 16.8037 4.19289 15.8699C4.14789 14.8574 4.13664 14.5537 4.13664 11.9924C4.13664 9.4274 4.14789 9.12365 4.19289 8.1149C4.23414 7.1774 4.39164 6.67115 4.52289 6.33365C4.69539 5.8874 4.90539 5.5649 5.23914 5.23115C5.57664 4.89365 5.89539 4.6874 6.34164 4.5149C6.67914 4.38365 7.18914 4.22615 8.12289 4.1849C9.13164 4.1399 9.43539 4.12865 12.0004 4.12865ZM12.0004 2.3999C9.39414 2.3999 9.06789 2.41115 8.04414 2.45615C7.02414 2.50115 6.32289 2.66615 5.71539 2.9024C5.08164 3.1499 4.54539 3.47615 4.01289 4.0124C3.47664 4.5449 3.15039 5.08115 2.90289 5.71115C2.66664 6.3224 2.50164 7.0199 2.45664 8.0399C2.41164 9.0674 2.40039 9.39365 2.40039 11.9999C2.40039 14.6062 2.41164 14.9324 2.45664 15.9562C2.50164 16.9762 2.66664 17.6774 2.90289 18.2849C3.15039 18.9187 3.47664 19.4549 4.01289 19.9874C4.54539 20.5199 5.08164 20.8499 5.71164 21.0937C6.32289 21.3299 7.02039 21.4949 8.04039 21.5399C9.06414 21.5849 9.39039 21.5962 11.9966 21.5962C14.6029 21.5962 14.9291 21.5849 15.9529 21.5399C16.9729 21.4949 17.6741 21.3299 18.2816 21.0937C18.9116 20.8499 19.4479 20.5199 19.9804 19.9874C20.5129 19.4549 20.8429 18.9187 21.0866 18.2887C21.3229 17.6774 21.4879 16.9799 21.5329 15.9599C21.5779 14.9362 21.5891 14.6099 21.5891 12.0037C21.5891 9.3974 21.5779 9.07115 21.5329 8.0474C21.4879 7.0274 21.3229 6.32615 21.0866 5.71865C20.8504 5.08115 20.5241 4.5449 19.9879 4.0124C19.4554 3.4799 18.9191 3.1499 18.2891 2.90615C17.6779 2.6699 16.9804 2.5049 15.9604 2.4599C14.9329 2.41115 14.6066 2.3999 12.0004 2.3999Z" fill="#929292"/>
    <path d="M12.0003 7.0686C9.27784 7.0686 7.06909 9.27735 7.06909 11.9999C7.06909 14.7224 9.27784 16.9311 12.0003 16.9311C14.7228 16.9311 16.9316 14.7224 16.9316 11.9999C16.9316 9.27735 14.7228 7.0686 12.0003 7.0686ZM12.0003 15.1986C10.2341 15.1986 8.80159 13.7661 8.80159 11.9999C8.80159 10.2336 10.2341 8.8011 12.0003 8.8011C13.7666 8.8011 15.1991 10.2336 15.1991 11.9999C15.1991 13.7661 13.7666 15.1986 12.0003 15.1986Z" fill="#929292"/>
    <path d="M18.2778 6.87342C18.2778 7.51092 17.7603 8.02467 17.1266 8.02467C16.4891 8.02467 15.9753 7.50717 15.9753 6.87342C15.9753 6.23592 16.4928 5.72217 17.1266 5.72217C17.7603 5.72217 18.2778 6.23967 18.2778 6.87342Z" fill="#929292"/>
</svg>
