<svg width="31" height="31" viewBox="0 0 31 31" fill="none" xmlns="http://www.w3.org/2000/svg">
    <g filter="url(#filter0_d_202_3)">
        <path fill-rule="evenodd" clip-rule="evenodd" d="M5.04816 13.25H10.5142C10.5939 10.4564 11.0049 7.91308 11.6497 5.97882C11.8344 5.42459 12.0431 4.90567 12.2769 4.43782C8.37291 5.61915 5.4532 9.06667 5.04816 13.25ZM15.25 2C8.48451 2 3 7.48451 3 14.25C3 21.0155 8.48451 26.5 15.25 26.5C22.0155 26.5 27.5 21.0155 27.5 14.25C27.5 7.48451 22.0155 2 15.25 2ZM15.25 4C15.17 4 14.9346 4.04775 14.5757 4.50305C14.2258 4.94709 13.8669 5.65159 13.547 6.61128C12.9816 8.30743 12.5944 10.6287 12.5151 13.25H17.9849C17.9056 10.6287 17.5184 8.30743 16.953 6.61128C16.6331 5.65159 16.2742 4.94709 15.9243 4.50305C15.5654 4.04775 15.33 4 15.25 4ZM19.9858 13.25C19.9061 10.4564 19.4951 7.91308 18.8503 5.97882C18.6656 5.42459 18.4569 4.90567 18.2231 4.43782C22.1271 5.61915 25.0468 9.06667 25.4518 13.25H19.9858ZM17.9849 15.25H12.5151C12.5944 17.8713 12.9816 20.1926 13.547 21.8887C13.8669 22.8484 14.2258 23.5529 14.5757 23.9969C14.9346 24.4523 15.17 24.5 15.25 24.5C15.33 24.5 15.5654 24.4523 15.9243 23.9969C16.2742 23.5529 16.6331 22.8484 16.953 21.8887C17.5184 20.1926 17.9056 17.8713 17.9849 15.25ZM18.2231 24.0622C18.4569 23.5943 18.6656 23.0754 18.8503 22.5212C19.4951 20.5869 19.9061 18.0436 19.9858 15.25H25.4518C25.0468 19.4333 22.1271 22.8808 18.2231 24.0622ZM12.2769 24.0622C12.0431 23.5943 11.8344 23.0754 11.6497 22.5212C11.0049 20.5869 10.5939 18.0436 10.5142 15.25H5.04816C5.4532 19.4333 8.37291 22.8808 12.2769 24.0622Z" fill="white"/>
    </g>
    <defs>
        <filter id="filter0_d_202_3" x="0" y="0" width="30.5" height="30.5" filterUnits="userSpaceOnUse" color-interpolation-filters="sRGB">
            <feFlood flood-opacity="0" result="BackgroundImageFix"/>
            <feColorMatrix in="SourceAlpha" type="matrix" values="0 0 0 0 0 0 0 0 0 0 0 0 0 0 0 0 0 0 127 0" result="hardAlpha"/>
            <feOffset dy="1"/>
            <feGaussianBlur stdDeviation="1.5"/>
            <feComposite in2="hardAlpha" operator="out"/>
            <feColorMatrix type="matrix" values="0 0 0 0 0 0 0 0 0 0 0 0 0 0 0 0 0 0 0.35 0"/>
            <feBlend mode="normal" in2="BackgroundImageFix" result="effect1_dropShadow_202_3"/>
            <feBlend mode="normal" in="SourceGraphic" in2="effect1_dropShadow_202_3" result="shape"/>
        </filter>
    </defs>
</svg>
