<svg width="114" height="114" viewBox="0 0 114 114" fill="none" xmlns="http://www.w3.org/2000/svg">
    <path d="M15.6808 91.5055C27.8271 84.64 41.8597 80.7217 56.8074 80.7217C71.7551 80.7217 85.7876 84.64 97.9339 91.5055M74.7431 44.8502C74.7431 54.7558 66.713 62.7859 56.8073 62.7859C46.9017 62.7859 38.8716 54.7558 38.8716 44.8502C38.8716 34.9445 46.9017 26.9144 56.8073 26.9144C66.713 26.9144 74.7431 34.9445 74.7431 44.8502ZM110.615 56.8073C110.615 86.5243 86.5243 110.615 56.8073 110.615C27.0904 110.615 3 86.5243 3 56.8073C3 27.0904 27.0904 3 56.8073 3C86.5243 3 110.615 27.0904 110.615 56.8073Z" stroke="#FAFAFA" stroke-width="5" stroke-linecap="round" stroke-linejoin="round"/>
</svg>
