<svg width="113" height="114" viewBox="0 0 113 114" fill="none" xmlns="http://www.w3.org/2000/svg">
<path d="M15.3722 91.7602C27.5185 84.8947 41.5511 80.9764 56.4988 80.9764C71.4465 80.9764 85.479 84.8947 97.6253 91.7602M74.4345 45.1048C74.4345 55.0105 66.4044 63.0406 56.4988 63.0406C46.5931 63.0406 38.563 55.0105 38.563 45.1048C38.563 35.1991 46.5931 27.169 56.4988 27.169C66.4044 27.169 74.4345 35.1991 74.4345 45.1048ZM110.306 57.062C110.306 86.779 86.2157 110.869 56.4988 110.869C26.7818 110.869 2.69141 86.779 2.69141 57.062C2.69141 27.345 26.7818 3.25464 56.4988 3.25464C86.2157 3.25464 110.306 27.345 110.306 57.062Z" stroke="#FAFAFA" stroke-width="5" stroke-linecap="round" stroke-linejoin="round"/>
</svg>
