<svg width="38" height="39" viewBox="0 0 38 39" fill="none" xmlns="http://www.w3.org/2000/svg">
<path fill-rule="evenodd" clip-rule="evenodd" d="M25.7071 14.8307C26.0976 15.2213 26.0976 15.8544 25.7071 16.2449L17.7071 24.2449C17.3166 24.6355 16.6834 24.6355 16.2929 24.2449L12.2929 20.2449C11.9024 19.8544 11.9024 19.2213 12.2929 18.8307C12.6834 18.4402 13.3166 18.4402 13.7071 18.8307L17 22.1236L24.2929 14.8307C24.6834 14.4402 25.3166 14.4402 25.7071 14.8307Z" fill="#0C33FF"/>
<path d="M38 19.5378C38 30.0313 29.4934 38.5378 19 38.5378C8.50659 38.5378 0 30.0313 0 19.5378C0 9.04443 8.50659 0.537842 19 0.537842C29.4934 0.537842 38 9.04443 38 19.5378ZM3.8 19.5378C3.8 27.9326 10.6053 34.7378 19 34.7378C27.3947 34.7378 34.2 27.9326 34.2 19.5378C34.2 11.1431 27.3947 4.33784 19 4.33784C10.6053 4.33784 3.8 11.1431 3.8 19.5378Z" fill="#0C33FF"/>
<path d="M38 19.5378C38 17.0427 37.5085 14.572 36.5537 12.2669C35.5989 9.96167 34.1993 7.86713 32.435 6.10281C30.6707 4.3385 28.5762 2.93897 26.271 1.98413C23.9658 1.02929 21.4951 0.537842 19 0.537842V4.33784C20.9961 4.33784 22.9726 4.731 24.8168 5.49487C26.6609 6.25874 28.3366 7.37837 29.748 8.78982C31.1595 10.2013 32.2791 11.8769 33.043 13.7211C33.8068 15.5652 34.2 17.5417 34.2 19.5378H38Z" fill="#0C33FF"/>
</svg>
