<svg width="24" height="24" viewBox="0 0 24 24" fill="none" xmlns="http://www.w3.org/2000/svg">
    <rect width="24" height="24" fill="#F2F2F7"/>
    <path d="M8.44052 19.7998C15.684 19.7998 19.647 13.7972 19.647 8.59329C19.647 8.42454 19.6433 8.25204 19.6358 8.08329C20.4067 7.52577 21.072 6.83521 21.6004 6.04404C20.8824 6.36348 20.1201 6.57211 19.3395 6.66279C20.1614 6.17013 20.7768 5.39618 21.0716 4.48442C20.2984 4.94265 19.4529 5.26589 18.5711 5.44029C17.9771 4.80905 17.1916 4.3911 16.3361 4.25105C15.4807 4.11099 14.6029 4.25665 13.8386 4.66548C13.0742 5.07432 12.4658 5.72357 12.1075 6.51285C11.7491 7.30214 11.6607 8.1875 11.856 9.03204C10.2904 8.95348 8.75874 8.54677 7.36038 7.83828C5.96201 7.1298 4.72815 6.13535 3.73877 4.91942C3.23591 5.7864 3.08204 6.81232 3.30842 7.78868C3.53479 8.76503 4.12444 9.61856 4.95752 10.1758C4.33209 10.1559 3.72037 9.98755 3.17289 9.68454V9.73329C3.17233 10.6431 3.48687 11.5251 4.06304 12.2292C4.63921 12.9334 5.44145 13.4163 6.33339 13.5958C5.75403 13.7543 5.14598 13.7774 4.55627 13.6633C4.80795 14.4458 5.29765 15.1301 5.95701 15.6209C6.61637 16.1116 7.41249 16.3843 8.23427 16.4008C6.83913 17.4967 5.11573 18.0911 3.34164 18.0883C3.02702 18.0878 2.71271 18.0685 2.40039 18.0305C4.20268 19.1868 6.29922 19.8009 8.44052 19.7998Z" fill="#929292"/>
</svg>
