<svg width="374" height="61" viewBox="0 0 374 61" fill="none" xmlns="http://www.w3.org/2000/svg">
    <path d="M284.268 30.5974C282.61 29.4649 280.801 28.7099 278.993 27.7284C277.862 27.1244 276.656 26.5204 275.677 25.6899C274.019 24.3309 274.32 21.6129 276.129 20.4049C278.616 18.7439 282.76 19.6499 283.213 23.0474C283.213 23.1229 283.288 23.1984 283.363 23.1984H287.131C287.206 23.1984 287.282 23.1229 287.282 23.0474C287.056 20.7069 286.151 18.7439 284.494 17.4604C282.911 16.2524 281.103 15.6484 279.143 15.6484C269.196 15.6484 268.292 26.2184 273.642 29.5404C274.245 29.9179 279.52 32.5604 281.404 33.7684C283.288 34.9009 283.815 37.0149 283.062 38.6759C282.308 40.1859 280.424 41.2429 278.54 41.0919C276.43 40.9409 274.848 39.8084 274.245 38.0719C274.17 37.7699 274.094 37.1659 274.094 36.8639C274.094 36.7884 274.019 36.7129 273.944 36.7129H269.874C269.799 36.7129 269.724 36.7884 269.724 36.8639C269.724 39.8084 270.477 41.4694 272.436 42.9794C274.32 44.4139 276.355 45.0179 278.54 45.0179C284.117 45.0179 286.98 41.8469 287.583 38.6004C288.035 35.4294 287.131 32.5604 284.268 30.5974Z" fill="#161616"/>
    <path d="M106.651 16.2539H104.842H102.883C102.808 16.2539 102.732 16.3294 102.732 16.3294L99.3412 27.4279C99.2658 27.5789 99.1151 27.5789 99.0398 27.4279L95.6487 16.3294C95.6487 16.2539 95.5733 16.2539 95.498 16.2539H93.5387H91.7301H89.3187C89.2433 16.2539 89.168 16.3294 89.168 16.4049V44.7174C89.168 44.7929 89.2433 44.8684 89.3187 44.8684H93.388C93.4633 44.8684 93.5387 44.7929 93.5387 44.7174V23.1999C93.5387 23.0489 93.7648 22.9734 93.8401 23.1244L97.2312 34.2984L97.4573 35.0534C97.4573 35.1289 97.5326 35.1289 97.608 35.1289H100.773C100.848 35.1289 100.924 35.0534 100.924 35.0534L101.15 34.2984L104.541 23.1244C104.616 22.9734 104.842 22.9734 104.842 23.1999V44.7174C104.842 44.7929 104.918 44.8684 104.993 44.8684H109.062C109.138 44.8684 109.213 44.7929 109.213 44.7174V16.4049C109.213 16.3294 109.138 16.2539 109.062 16.2539H106.651Z" fill="#161616"/>
    <path d="M221.646 16.2539C221.57 16.2539 221.495 16.3294 221.495 16.3294L218.104 27.4279C218.029 27.5789 217.878 27.5789 217.803 27.4279L214.412 16.3294C214.412 16.2539 214.336 16.2539 214.261 16.2539H208.006C207.931 16.2539 207.855 16.3294 207.855 16.4049V44.7174C207.855 44.7929 207.931 44.8684 208.006 44.8684H212.075C212.151 44.8684 212.226 44.7929 212.226 44.7174V23.1999C212.226 23.0489 212.452 22.9734 212.528 23.1244L215.919 34.2984L216.145 35.0534C216.145 35.1289 216.22 35.1289 216.295 35.1289H219.46C219.536 35.1289 219.611 35.0534 219.611 35.0534L219.837 34.2984L223.228 23.1244C223.304 22.9734 223.53 22.9734 223.53 23.1999V44.7174C223.53 44.7929 223.605 44.8684 223.68 44.8684H227.75C227.825 44.8684 227.9 44.7929 227.9 44.7174V16.4049C227.9 16.3294 227.825 16.2539 227.75 16.2539H221.646Z" fill="#161616"/>
    <path d="M168.896 16.2539H161.285H157.216H149.53C149.454 16.2539 149.379 16.3294 149.379 16.4049V19.9534C149.379 20.0289 149.454 20.1044 149.53 20.1044H156.99V44.7174C156.99 44.7929 157.065 44.8684 157.141 44.8684H161.21C161.285 44.8684 161.361 44.7929 161.361 44.7174V20.1044H168.821C168.896 20.1044 168.972 20.0289 168.972 19.9534V16.4049C169.047 16.3294 168.972 16.2539 168.896 16.2539Z" fill="#161616"/>
    <path d="M193.01 44.8658H196.702C196.777 44.8658 196.853 44.7903 196.853 44.6393L189.166 16.2513C189.166 16.1758 189.091 16.1758 189.016 16.1758H187.584H185.097H183.665C183.59 16.1758 183.515 16.2513 183.515 16.2513L175.828 44.6393C175.828 44.7148 175.903 44.8658 175.979 44.8658H179.671C179.747 44.8658 179.822 44.7903 179.822 44.7903L182.083 36.4853C182.083 36.4098 182.158 36.4098 182.233 36.4098H190.447C190.523 36.4098 190.598 36.4853 190.598 36.4853L192.859 44.7903C192.859 44.7903 192.934 44.8658 193.01 44.8658ZM183.213 32.3328L186.227 21.2343C186.303 21.0833 186.453 21.0833 186.529 21.2343L189.543 32.3328C189.543 32.4083 189.468 32.5593 189.392 32.5593H183.439C183.288 32.5593 183.213 32.4083 183.213 32.3328Z" fill="#161616"/>
    <path d="M256.461 44.8658H260.153C260.229 44.8658 260.304 44.7903 260.304 44.6393L252.617 16.2513C252.617 16.1758 252.542 16.1758 252.467 16.1758H251.035H248.548H247.116C247.041 16.1758 246.966 16.2513 246.966 16.2513L239.279 44.6393C239.279 44.7148 239.355 44.8658 239.43 44.8658H243.123C243.198 44.8658 243.273 44.7903 243.273 44.7903L245.534 36.4853C245.534 36.4098 245.609 36.4098 245.685 36.4098H253.899C253.974 36.4098 254.049 36.4853 254.049 36.4853L256.31 44.7903C256.31 44.7903 256.385 44.8658 256.461 44.8658ZM246.664 32.3328L249.679 21.2343C249.754 21.0833 249.905 21.0833 249.98 21.2343L252.994 32.3328C252.994 32.4083 252.919 32.5593 252.844 32.5593H246.89C246.74 32.5593 246.664 32.4083 246.664 32.3328Z" fill="#161616"/>
    <path d="M125.791 40.6404V31.8824C125.791 31.8069 125.866 31.7314 125.941 31.7314H136.868C136.944 31.7314 137.019 31.6559 137.019 31.5804V28.0319C137.019 27.9564 136.944 27.8809 136.868 27.8809H125.941C125.866 27.8809 125.791 27.8054 125.791 27.7299V20.2554C125.791 20.1799 125.866 20.1044 125.941 20.1044H138.3C138.375 20.1044 138.451 20.0289 138.451 19.9534V16.4049C138.451 16.3294 138.375 16.2539 138.3 16.2539H125.791H121.571C121.495 16.2539 121.42 16.3294 121.42 16.4049V20.1044V27.9564V31.8069V40.8669V44.7174C121.42 44.7929 121.495 44.8684 121.571 44.8684H125.791H138.827C138.903 44.8684 138.978 44.7929 138.978 44.7174V41.0179C138.978 40.9424 138.903 40.8669 138.827 40.8669H125.866C125.866 40.7914 125.791 40.7159 125.791 40.6404Z" fill="#161616"/>
    <path d="M321.646 44.5638L307.478 29.9168C307.403 29.8413 307.403 29.7658 307.478 29.6903L320.214 16.4023C320.289 16.3268 320.214 16.1758 320.138 16.1758H314.939C314.863 16.1758 314.863 16.1758 314.863 16.2513L304.012 27.5763C303.937 27.6518 303.786 27.5763 303.786 27.5008V16.4778C303.786 16.4023 303.711 16.3268 303.635 16.3268H299.491C299.415 16.3268 299.34 16.4023 299.34 16.4778V44.7903C299.34 44.8658 299.415 44.9413 299.491 44.9413H303.56C303.635 44.9413 303.711 44.8658 303.711 44.7903V32.3328C303.711 32.1818 303.861 32.1063 303.937 32.2573L316.145 44.9413L316.22 45.0168H321.42C321.646 44.8658 321.721 44.6393 321.646 44.5638Z" fill="#161616"/>
    <path d="M61.2103 1L36.4932 19.422L41.0899 8.55L61.2103 1Z" fill="#E17726" stroke="#E17726" stroke-linecap="round" stroke-linejoin="round"/>
    <path d="M4.08984 1L28.6563 19.573L24.2856 8.55L4.08984 1Z" fill="#E27625" stroke="#E27625" stroke-linecap="round" stroke-linejoin="round"/>
    <path d="M52.3189 43.6562L45.6875 53.7733L59.8546 57.6992L63.8486 43.8828L52.3189 43.6562Z" fill="#E27625" stroke="#E27625" stroke-linecap="round" stroke-linejoin="round"/>
    <path d="M1.52734 43.8828L5.52128 57.6992L19.6131 53.7733L13.057 43.6562L1.52734 43.8828Z" fill="#E27625" stroke="#E27625" stroke-linecap="round" stroke-linejoin="round"/>
    <path d="M18.859 26.5942L14.9404 32.5587L28.8815 33.1628L28.4294 18.0627L18.859 26.5942Z" fill="#E27625" stroke="#E27625" stroke-linecap="round" stroke-linejoin="round"/>
    <path d="M46.5147 26.5966L36.7936 17.9141L36.4922 33.1651L50.4333 32.5611L46.5147 26.5966Z" fill="#E27625" stroke="#E27625" stroke-linecap="round" stroke-linejoin="round"/>
    <path d="M19.6133 53.7759L28.0533 49.6989L20.7436 43.9609L19.6133 53.7759Z" fill="#E27625" stroke="#E27625" stroke-linecap="round" stroke-linejoin="round"/>
    <path d="M37.3223 49.6989L45.6869 53.7759L44.5566 43.9609L37.3223 49.6989Z" fill="#E27625" stroke="#E27625" stroke-linecap="round" stroke-linejoin="round"/>
    <path d="M45.6869 53.7762L37.3223 49.6992L38.0005 55.1352L37.9251 57.4757L45.6869 53.7762Z" fill="#D5BFB2" stroke="#D5BFB2" stroke-linecap="round" stroke-linejoin="round"/>
    <path d="M19.6133 53.7762L27.4504 57.4757L27.3751 55.1352L28.0533 49.6992L19.6133 53.7762Z" fill="#D5BFB2" stroke="#D5BFB2" stroke-linecap="round" stroke-linejoin="round"/>
    <path d="M27.602 40.3347L20.5938 38.2962L25.492 36.0312L27.602 40.3347Z" fill="#233447" stroke="#233447" stroke-linecap="round" stroke-linejoin="round"/>
    <path d="M37.7734 40.3347L39.8081 36.0312L44.7817 38.2962L37.7734 40.3347Z" fill="#233447" stroke="#233447" stroke-linecap="round" stroke-linejoin="round"/>
    <path d="M19.6137 53.7735L20.8194 43.6565L13.0576 43.883L19.6137 53.7735Z" fill="#CC6228" stroke="#CC6228" stroke-linecap="round" stroke-linejoin="round"/>
    <path d="M44.5576 43.6565L45.688 53.7735L52.3194 43.883L44.5576 43.6565Z" fill="#CC6228" stroke="#CC6228" stroke-linecap="round" stroke-linejoin="round"/>
    <path d="M50.4352 32.5588L36.4941 33.1628L37.7752 40.3353L39.8099 36.0318L44.7834 38.2968L50.4352 32.5588Z" fill="#CC6228" stroke="#CC6228" stroke-linecap="round" stroke-linejoin="round"/>
    <path d="M20.5932 38.2968L25.4914 36.0318L27.6014 40.3353L28.8825 33.1628L14.9414 32.5588L20.5932 38.2968Z" fill="#CC6228" stroke="#CC6228" stroke-linecap="round" stroke-linejoin="round"/>
    <path d="M14.9414 32.5588L20.7439 43.9593L20.5932 38.2968L14.9414 32.5588Z" fill="#E27525" stroke="#E27525" stroke-linecap="round" stroke-linejoin="round"/>
    <path d="M44.7827 38.2968L44.5566 43.9593L50.4345 32.5588L44.7827 38.2968Z" fill="#E27525" stroke="#E27525" stroke-linecap="round" stroke-linejoin="round"/>
    <path d="M28.8826 33.1643L27.6016 40.3368L29.1841 48.8683L29.5608 37.6188L28.8826 33.1643Z" fill="#E27525" stroke="#E27525" stroke-linecap="round" stroke-linejoin="round"/>
    <path d="M36.4946 33.1643L35.8164 37.6188L36.1178 48.8683L37.7757 40.3368L36.4946 33.1643Z" fill="#E27525" stroke="#E27525" stroke-linecap="round" stroke-linejoin="round"/>
    <path d="M37.7741 40.3359L36.1162 48.8674L37.3219 49.6979L44.5562 43.9599L44.7823 38.2974L37.7741 40.3359Z" fill="#F5841F" stroke="#F5841F" stroke-linecap="round" stroke-linejoin="round"/>
    <path d="M20.5928 38.2974L20.7435 43.9599L28.0531 49.6979L29.1835 48.8674L27.601 40.3359L20.5928 38.2974Z" fill="#F5841F" stroke="#F5841F" stroke-linecap="round" stroke-linejoin="round"/>
    <path d="M37.9251 57.4729L38.0004 55.1324L37.3222 54.6039H27.9779L27.3751 55.1324L27.4504 57.4729L19.6133 53.7734L22.3261 56.0384L27.9026 59.8889H37.3976L42.974 56.0384L45.6869 53.7734L37.9251 57.4729Z" fill="#C0AC9D" stroke="#C0AC9D" stroke-linecap="round" stroke-linejoin="round"/>
    <path d="M37.3221 49.6979L36.1164 48.8674H29.1836L28.0532 49.6979L27.375 55.1339L27.9779 54.6054H37.3221L38.0004 55.1339L37.3221 49.6979Z" fill="#161616" stroke="#161616" stroke-linecap="round" stroke-linejoin="round"/>
    <path d="M62.2655 20.63L64.3755 10.4375L61.2105 1L37.3223 18.818L46.5158 26.5945L59.4773 30.3695L62.3408 27.0475L61.1351 26.1415L63.0944 24.3295L61.5873 23.1215L63.5466 21.6115L62.2655 20.63Z" fill="#763E1A" stroke="#763E1A" stroke-linecap="round" stroke-linejoin="round"/>
    <path d="M1 10.4375L3.11 20.63L1.75357 21.6115L3.71286 23.1215L2.20571 24.3295L4.24035 26.1415L2.95928 27.0475L5.82286 30.3695L18.8596 26.5945L28.0532 18.818L4.08964 1L1 10.4375Z" fill="#763E1A" stroke="#763E1A" stroke-linecap="round" stroke-linejoin="round"/>
    <path d="M59.4774 30.3687L46.5159 26.5938L50.4345 32.5582L44.5566 43.9587L52.3184 43.8832H63.8481L59.4774 30.3687Z" fill="#F5841F" stroke="#F5841F" stroke-linecap="round" stroke-linejoin="round"/>
    <path d="M18.8595 26.5938L5.8227 30.3687L1.52734 43.8832H13.057L20.7434 43.9587L14.9409 32.5582L18.8595 26.5938Z" fill="#F5841F" stroke="#F5841F" stroke-linecap="round" stroke-linejoin="round"/>
    <path d="M36.493 33.163L37.3219 18.8181L41.0898 8.55005H24.2852L28.053 18.8181L28.8819 33.163L29.1834 37.693V48.8671H36.1162V37.693L36.493 33.163Z" fill="#F5841F" stroke="#F5841F" stroke-linecap="round" stroke-linejoin="round"/>
    <path d="M341.674 17H369.674M369.674 17V45M369.674 17L341.674 45" stroke="#AEAEB2" stroke-width="2" stroke-linecap="round" stroke-linejoin="round"/>
</svg>
